<?xml version="1.0" encoding="UTF-8"?><!DOCTYPE svg PUBLIC "-//W3C//DTD SVG 1.1//EN" "http://www.w3.org/Graphics/SVG/1.1/DTD/svg11.dtd"><svg xmlns="http://www.w3.org/2000/svg" xmlns:xlink="http://www.w3.org/1999/xlink"><symbol id="github" viewBox="0 0 32.58 31.77"><path d="M16.29 0a16.29 16.29 0 0 0-5.15 31.75c.82.15 1.11-.36 1.11-.79v-2.77C7.7 29.18 6.74 26 6.74 26a4.36 4.36 0 0 0-1.81-2.39c-1.47-1 .12-1 .12-1a3.43 3.43 0 0 1 2.49 1.68 3.48 3.48 0 0 0 4.74 1.36 3.46 3.46 0 0 1 1-2.18c-3.62-.41-7.42-1.81-7.42-8a6.3 6.3 0 0 1 1.67-4.37 5.94 5.94 0 0 1 .16-4.31s1.37-.44 4.48 1.67a15.41 15.41 0 0 1 8.16 0c3.11-2.11 4.47-1.67 4.47-1.67a5.91 5.91 0 0 1 .2 4.28 6.3 6.3 0 0 1 1.67 4.37c0 6.26-3.81 7.63-7.44 8a3.85 3.85 0 0 1 1.11 3v4.47c0 .53.29.94 1.12.78A16.29 16.29 0 0 0 16.29 0Z"/></symbol><symbol id="instagram" viewBox="0 0 31 31"><path d="M21.765 0H9.235C4.143 0 0 4.143 0 9.235v12.53C0 26.857 4.143 31 9.235 31h12.53C26.857 31 31 26.857 31 21.765V9.235C31 4.143 26.857 0 21.765 0Zm6.116 21.765a6.117 6.117 0 0 1-6.116 6.116H9.235a6.117 6.117 0 0 1-6.116-6.116V9.235A6.116 6.116 0 0 1 9.235 3.12h12.53a6.116 6.116 0 0 1 6.116 6.116v12.53Z"/><path d="M15.5 7.482c-4.421 0-8.018 3.597-8.018 8.018 0 4.421 3.597 8.018 8.018 8.018 4.421 0 8.018-3.597 8.018-8.018 0-4.42-3.597-8.018-8.018-8.018Zm0 12.917a4.9 4.9 0 1 1 0-9.798 4.9 4.9 0 0 1 0 9.798ZM23.533 9.464a1.921 1.921 0 1 0 0-3.843 1.921 1.921 0 0 0 0 3.843Z"/></symbol><symbol id="telegram" viewBox="0 0 32 32"><path d="M29.26 3.686a2.069 2.069 0 0 0-2.096-.325L3.275 13.005a2.058 2.058 0 0 0 .104 3.845l5.154 1.792 2.793 9.234c.005.02.023.03.03.049a.647.647 0 0 0 .124.2c.02.023.042.045.065.066.07.057.15.1.237.125.014.004.022.016.036.019h.008l.004.001a.6.6 0 0 0 .135.014.65.65 0 0 0 .175-.03c.011-.003.022-.002.033-.006a.659.659 0 0 0 .255-.164c.009-.008.021-.01.03-.018l4.017-4.434 5.862 4.539c.357.279.796.43 1.248.43.978 0 1.822-.685 2.023-1.642l4.35-21.357c.151-.739-.117-1.5-.697-1.982ZM12.785 20.393l-.943 4.583-1.966-6.504 9.753-5.079-6.663 6.663a.663.663 0 0 0-.18.337Zm11.518 6.364a.72.72 0 0 1-.462.53.7.7 0 0 1-.685-.103l-6.351-4.918a.666.666 0 0 0-.901.08l-2.795 3.082.942-4.57 9.584-9.586a.666.666 0 0 0-.778-1.062L9.038 17.405 3.815 15.59a.7.7 0 0 1-.481-.658.71.71 0 0 1 .445-.691l23.885-9.643a.715.715 0 0 1 .744.114c.205.166.3.433.243.69l-4.349 21.355Z"/></symbol><symbol id="vk" viewBox="0 0 32 32"><path d="M30.093 25.667H26.74c-1.19 0-1.804-.674-2.819-1.79-.409-.448-.91-1-1.578-1.66-1.339-1.273-2.336-1.95-2.874-1.95-.077 0-.132.002-.169.005-.064.284-.057 1.064-.048 1.952.004.425.008.917.008 1.488 0 1.621-1.225 1.955-3.064 1.955-3.945 0-7.972-2.372-10.773-6.346C1.367 13.707 0 9.155 0 7.941 0 6.92.661 6.335 1.816 6.335h3.355c1.401 0 1.84.892 2.141 1.726 1.64 4.732 4.047 7.974 4.84 8.378.016-.107.03-.282.03-.563v-4.883c-.062-1.137-.443-1.604-.78-2.017-.258-.316-.55-.673-.55-1.216 0-.687.583-1.427 1.521-1.427h5.272c.736 0 1.612.328 1.612 1.887v6.564c0 .108.011.188.026.245.169-.076.433-.285.941-.786 2.285-2.524 3.957-6.519 3.973-6.559.378-.885 1.094-1.35 2.075-1.35h3.353c.692 0 1.194.202 1.49.6.196.263.384.733.162 1.477a.224.224 0 0 0-.004.013c-.474 1.95-3.901 6.865-4.596 7.777l.003.002c-.06.094-.217.345-.219.412 0 0 .008.08.179.296l.01.013c.073.087.28.292.566.581 3.267 3.284 5.317 5.772 4.71 7.234-.18.424-.64.928-1.833.928Zm-10.622-6.734c.67 0 1.645.278 3.802 2.327.698.69 1.215 1.257 1.636 1.72.976 1.072 1.255 1.353 1.834 1.353h3.353c.41 0 .575-.081.6-.11.095-.211.065-1.262-4.425-5.778-.351-.353-.595-.608-.68-.712-.743-.945-.458-1.573-.04-2.238a.637.637 0 0 1 .118-.142c.53-.745 3.971-5.688 4.316-7.274a.707.707 0 0 1 .027-.091c.047-.172.032-.25.03-.265h-.002c-.012 0-.119-.056-.415-.056h-3.353c-.513 0-.708.213-.845.533-.07.167-1.778 4.244-4.242 6.964-.872.864-1.366 1.237-2.06 1.237-.597 0-1.201-.556-1.201-1.617V8.22c0-.417-.072-.523-.077-.53-.003 0-.056-.023-.202-.023h-5.273c-.145 0-.185.076-.188.096 0 .064.121.213.25.37.395.484.993 1.216 1.082 2.823l.001 4.919c0 .628 0 1.933-1.286 1.933-1.899 0-4.858-5.5-6.176-9.301-.29-.8-.443-.839-.884-.839H1.816c-.483 0-.483.075-.483.273 0 .535.955 4.764 5.175 10.606 2.556 3.626 6.177 5.786 9.69 5.786 1.73 0 1.73-.26 1.73-.621 0-.565-.004-1.055-.008-1.476-.017-1.808-.024-2.485.428-2.941.316-.318.727-.362 1.123-.362Z"/></symbol></svg>